999
"DXF R12 Output" (www.mydxf.blogspot.com)
 0 
SECTION
 2 
HEADER
 9 
$ACADVER
 1 
AC1009
 9 
$EXTMIN
 10 
 0 
 20 
 0 
 9 
$EXTMAX
 10 
 8.5 
 20 
 11 
 0 
ENDSEC
 0 
SECTION
 2 
ENTITIES
0
LINE
8
Layer 1
10
0.793749
20
21.322949
11
-0.793749
21
19.735451
0
LINE
8
Layer 1
10
0.000000
20
21.852115
11
0.000000
21
19.206285
0
LINE
8
Layer 1
10
2.116664
20
19.470868
11
1.058332
21
18.412536
0
LINE
8
Layer 1
10
1.587498
20
20.000034
11
0.529166
21
18.941702
0
LINE
8
Layer 1
10
1.058332
20
20.529200
11
0.000000
21
19.470868
0
LINE
8
Layer 1
10
5.882249
20
5.132870
11
5.781768
21
5.507870
0
LINE
8
Layer 1
10
5.781768
20
5.507870
11
5.507249
21
5.782389
0
LINE
8
Layer 1
10
5.507249
20
5.782389
11
5.132249
21
5.882870
0
LINE
8
Layer 1
10
5.132249
20
5.882870
11
4.757249
21
5.782389
0
LINE
8
Layer 1
10
4.757249
20
5.782389
11
4.482730
21
5.507870
0
LINE
8
Layer 1
10
4.482730
20
5.507870
11
4.382249
21
5.132870
0
LINE
8
Layer 1
10
4.382249
20
5.132870
11
4.601919
21
4.602540
0
LINE
8
Layer 1
10
4.601919
20
4.602540
11
5.132249
21
4.382870
0
LINE
8
Layer 1
10
5.132249
20
4.382870
11
5.662579
21
4.602540
0
LINE
8
Layer 1
10
5.662579
20
4.602540
11
5.882249
21
5.132870
0
LINE
8
Layer 1
10
5.882249
20
5.132870
11
5.882249
21
5.132870
0
LINE
8
Layer 1
10
10.132244
20
5.132870
11
10.030661
21
6.140543
0
LINE
8
Layer 1
10
10.030661
20
6.140543
11
9.739319
21
7.079093
0
LINE
8
Layer 1
10
9.739319
20
7.079093
11
9.278323
21
7.928414
0
LINE
8
Layer 1
10
9.278323
20
7.928414
11
8.667779
21
8.668399
0
LINE
8
Layer 1
10
8.667779
20
8.668399
11
7.927794
21
9.278943
0
LINE
8
Layer 1
10
7.927794
20
9.278943
11
7.078473
21
9.739939
0
LINE
8
Layer 1
10
7.078473
20
9.739939
11
6.139923
21
10.031282
0
LINE
8
Layer 1
10
6.139923
20
10.031282
11
5.132250
21
10.132864
0
LINE
8
Layer 1
10
5.132250
20
10.132864
11
4.124576
21
10.031282
0
LINE
8
Layer 1
10
4.124576
20
10.031282
11
3.186026
21
9.739939
0
LINE
8
Layer 1
10
3.186026
20
9.739939
11
2.336705
21
9.278943
0
LINE
8
Layer 1
10
2.336705
20
9.278943
11
1.596720
21
8.668399
0
LINE
8
Layer 1
10
1.596720
20
8.668399
11
0.986176
21
7.928414
0
LINE
8
Layer 1
10
0.986176
20
7.928414
11
0.525180
21
7.079093
0
LINE
8
Layer 1
10
0.525180
20
7.079093
11
0.233838
21
6.140543
0
LINE
8
Layer 1
10
0.233838
20
6.140543
11
0.132255
21
5.132870
0
LINE
8
Layer 1
10
0.132255
20
5.132870
11
0.233838
21
4.125197
0
LINE
8
Layer 1
10
0.233838
20
4.125197
11
0.525180
21
3.186646
0
LINE
8
Layer 1
10
0.525180
20
3.186646
11
0.986176
21
2.337326
0
LINE
8
Layer 1
10
0.986176
20
2.337326
11
1.596720
21
1.597340
0
LINE
8
Layer 1
10
1.596720
20
1.597340
11
2.336705
21
0.986796
0
LINE
8
Layer 1
10
2.336705
20
0.986796
11
3.186026
21
0.525800
0
LINE
8
Layer 1
10
3.186026
20
0.525800
11
4.124576
21
0.234458
0
LINE
8
Layer 1
10
4.124576
20
0.234458
11
5.132250
21
0.132876
0
LINE
8
Layer 1
10
5.132250
20
0.132876
11
6.139923
21
0.234458
0
LINE
8
Layer 1
10
6.139923
20
0.234458
11
7.078473
21
0.525800
0
LINE
8
Layer 1
10
7.078473
20
0.525800
11
7.927794
21
0.986796
0
LINE
8
Layer 1
10
7.927794
20
0.986796
11
8.667779
21
1.597340
0
LINE
8
Layer 1
10
8.667779
20
1.597340
11
9.278323
21
2.337326
0
LINE
8
Layer 1
10
9.278323
20
2.337326
11
9.739319
21
3.186646
0
LINE
8
Layer 1
10
9.739319
20
3.186646
11
10.030661
21
4.125197
0
LINE
8
Layer 1
10
10.030661
20
4.125197
11
10.132244
21
5.132870
0
LINE
8
Layer 1
10
10.132244
20
5.132870
11
10.132244
21
5.132870
0
LINE
8
Layer 1
10
16.146821
20
5.132870
11
15.926929
21
5.662792
0
LINE
8
Layer 1
10
15.926929
20
5.662792
11
15.396822
21
5.882239
0
LINE
8
Layer 1
10
15.396822
20
5.882239
11
14.866715
21
5.662792
0
LINE
8
Layer 1
10
14.866715
20
5.662792
11
14.646823
21
5.132870
0
LINE
8
Layer 1
10
14.646823
20
5.132870
11
14.866715
21
4.602948
0
LINE
8
Layer 1
10
14.866715
20
4.602948
11
15.396822
21
4.383501
0
LINE
8
Layer 1
10
15.396822
20
4.383501
11
15.926929
21
4.602948
0
LINE
8
Layer 1
10
15.926929
20
4.602948
11
16.146821
21
5.132870
0
LINE
8
Layer 1
10
16.146821
20
5.132870
11
16.146821
21
5.132870
0
LINE
8
Layer 1
10
20.396815
20
5.132870
11
20.223738
21
6.437457
0
LINE
8
Layer 1
10
20.223738
20
6.437457
11
19.726943
21
7.632867
0
LINE
8
Layer 1
10
19.726943
20
7.632867
11
18.940085
21
8.660809
0
LINE
8
Layer 1
10
18.940085
20
8.660809
11
17.896818
21
9.462992
0
LINE
8
Layer 1
10
17.896818
20
9.462992
11
16.680474
21
9.965396
0
LINE
8
Layer 1
10
16.680474
20
9.965396
11
15.396821
21
10.132864
0
LINE
8
Layer 1
10
15.396821
20
10.132864
11
14.113168
21
9.965396
0
LINE
8
Layer 1
10
14.113168
20
9.965396
11
12.896824
21
9.462992
0
LINE
8
Layer 1
10
12.896824
20
9.462992
11
11.853557
21
8.660809
0
LINE
8
Layer 1
10
11.853557
20
8.660809
11
11.066699
21
7.632867
0
LINE
8
Layer 1
10
11.066699
20
7.632867
11
10.569904
21
6.437457
0
LINE
8
Layer 1
10
10.569904
20
6.437457
11
10.396827
21
5.132870
0
LINE
8
Layer 1
10
10.396827
20
5.132870
11
10.569904
21
3.828283
0
LINE
8
Layer 1
10
10.569904
20
3.828283
11
11.066699
21
2.632873
0
LINE
8
Layer 1
10
11.066699
20
2.632873
11
11.853557
21
1.604930
0
LINE
8
Layer 1
10
11.853557
20
1.604930
11
12.896824
21
0.802748
0
LINE
8
Layer 1
10
12.896824
20
0.802748
11
14.113168
21
0.300344
0
LINE
8
Layer 1
10
14.113168
20
0.300344
11
15.396821
21
0.132875
0
LINE
8
Layer 1
10
15.396821
20
0.132875
11
16.680474
21
0.300344
0
LINE
8
Layer 1
10
16.680474
20
0.300344
11
17.896818
21
0.802748
0
LINE
8
Layer 1
10
17.896818
20
0.802748
11
18.940085
21
1.604930
0
LINE
8
Layer 1
10
18.940085
20
1.604930
11
19.726943
21
2.632873
0
LINE
8
Layer 1
10
19.726943
20
2.632873
11
20.223738
21
3.828283
0
LINE
8
Layer 1
10
20.223738
20
3.828283
11
20.396815
21
5.132870
0
LINE
8
Layer 1
10
20.396815
20
5.132870
11
20.396815
21
5.132870
0
LINE
8
Layer 1
10
5.882247
20
15.397444
11
5.662355
21
15.927366
0
LINE
8
Layer 1
10
5.662355
20
15.927366
11
5.132248
21
16.146813
0
LINE
8
Layer 1
10
5.132248
20
16.146813
11
4.602141
21
15.927366
0
LINE
8
Layer 1
10
4.602141
20
15.927366
11
4.382249
21
15.397444
0
LINE
8
Layer 1
10
4.382249
20
15.397444
11
4.602141
21
14.867522
0
LINE
8
Layer 1
10
4.602141
20
14.867522
11
5.132248
21
14.648075
0
LINE
8
Layer 1
10
5.132248
20
14.648075
11
5.662355
21
14.867522
0
LINE
8
Layer 1
10
5.662355
20
14.867522
11
5.882247
21
15.397444
0
LINE
8
Layer 1
10
5.882247
20
15.397444
11
5.882247
21
15.397444
0
LINE
8
Layer 1
10
10.132244
20
15.397444
11
10.030661
21
16.405117
0
LINE
8
Layer 1
10
10.030661
20
16.405117
11
9.739319
21
17.343667
0
LINE
8
Layer 1
10
9.739319
20
17.343667
11
9.278323
21
18.192988
0
LINE
8
Layer 1
10
9.278323
20
18.192988
11
8.667779
21
18.932974
0
LINE
8
Layer 1
10
8.667779
20
18.932974
11
7.927794
21
19.543517
0
LINE
8
Layer 1
10
7.927794
20
19.543517
11
7.078473
21
20.004514
0
LINE
8
Layer 1
10
7.078473
20
20.004514
11
6.139923
21
20.295856
0
LINE
8
Layer 1
10
6.139923
20
20.295856
11
5.132250
21
20.397438
0
LINE
8
Layer 1
10
5.132250
20
20.397438
11
4.124576
21
20.295856
0
LINE
8
Layer 1
10
4.124576
20
20.295856
11
3.186026
21
20.004514
0
LINE
8
Layer 1
10
3.186026
20
20.004514
11
2.336705
21
19.543517
0
LINE
8
Layer 1
10
2.336705
20
19.543517
11
1.596720
21
18.932974
0
LINE
8
Layer 1
10
1.596720
20
18.932974
11
0.986176
21
18.192988
0
LINE
8
Layer 1
10
0.986176
20
18.192988
11
0.525180
21
17.343667
0
LINE
8
Layer 1
10
0.525180
20
17.343667
11
0.233838
21
16.405117
0
LINE
8
Layer 1
10
0.233838
20
16.405117
11
0.132255
21
15.397444
0
LINE
8
Layer 1
10
0.132255
20
15.397444
11
0.233838
21
14.389771
0
LINE
8
Layer 1
10
0.233838
20
14.389771
11
0.525180
21
13.451221
0
LINE
8
Layer 1
10
0.525180
20
13.451221
11
0.986176
21
12.601900
0
LINE
8
Layer 1
10
0.986176
20
12.601900
11
1.596720
21
11.861914
0
LINE
8
Layer 1
10
1.596720
20
11.861914
11
2.336705
21
11.251371
0
LINE
8
Layer 1
10
2.336705
20
11.251371
11
3.186026
21
10.790374
0
LINE
8
Layer 1
10
3.186026
20
10.790374
11
4.124576
21
10.499032
0
LINE
8
Layer 1
10
4.124576
20
10.499032
11
5.132250
21
10.397450
0
LINE
8
Layer 1
10
5.132250
20
10.397450
11
6.139923
21
10.499032
0
LINE
8
Layer 1
10
6.139923
20
10.499032
11
7.078473
21
10.790374
0
LINE
8
Layer 1
10
7.078473
20
10.790374
11
7.927794
21
11.251371
0
LINE
8
Layer 1
10
7.927794
20
11.251371
11
8.667779
21
11.861914
0
LINE
8
Layer 1
10
8.667779
20
11.861914
11
9.278323
21
12.601900
0
LINE
8
Layer 1
10
9.278323
20
12.601900
11
9.739319
21
13.451221
0
LINE
8
Layer 1
10
9.739319
20
13.451221
11
10.030661
21
14.389771
0
LINE
8
Layer 1
10
10.030661
20
14.389771
11
10.132244
21
15.397444
0
LINE
8
Layer 1
10
10.132244
20
15.397444
11
10.132244
21
15.397444
0
LINE
8
Layer 1
10
16.146821
20
15.397436
11
15.926929
21
15.927358
0
LINE
8
Layer 1
10
15.926929
20
15.927358
11
15.396822
21
16.146805
0
LINE
8
Layer 1
10
15.396822
20
16.146805
11
14.866715
21
15.927358
0
LINE
8
Layer 1
10
14.866715
20
15.927358
11
14.646823
21
15.397436
0
LINE
8
Layer 1
10
14.646823
20
15.397436
11
14.866715
21
14.867514
0
LINE
8
Layer 1
10
14.866715
20
14.867514
11
15.396822
21
14.648067
0
LINE
8
Layer 1
10
15.396822
20
14.648067
11
15.926929
21
14.867514
0
LINE
8
Layer 1
10
15.926929
20
14.867514
11
16.146821
21
15.397436
0
LINE
8
Layer 1
10
16.146821
20
15.397436
11
16.146821
21
15.397436
0
LINE
8
Layer 1
10
20.396815
20
15.397436
11
20.223738
21
16.702023
0
LINE
8
Layer 1
10
20.223738
20
16.702023
11
19.726943
21
17.897433
0
LINE
8
Layer 1
10
19.726943
20
17.897433
11
18.940085
21
18.925375
0
LINE
8
Layer 1
10
18.940085
20
18.925375
11
17.896818
21
19.727558
0
LINE
8
Layer 1
10
17.896818
20
19.727558
11
16.680474
21
20.229962
0
LINE
8
Layer 1
10
16.680474
20
20.229962
11
15.396821
21
20.397430
0
LINE
8
Layer 1
10
15.396821
20
20.397430
11
14.113168
21
20.229962
0
LINE
8
Layer 1
10
14.113168
20
20.229962
11
12.896824
21
19.727558
0
LINE
8
Layer 1
10
12.896824
20
19.727558
11
11.853557
21
18.925375
0
LINE
8
Layer 1
10
11.853557
20
18.925375
11
11.066699
21
17.897433
0
LINE
8
Layer 1
10
11.066699
20
17.897433
11
10.569904
21
16.702023
0
LINE
8
Layer 1
10
10.569904
20
16.702023
11
10.396827
21
15.397436
0
LINE
8
Layer 1
10
10.396827
20
15.397436
11
10.569904
21
14.092849
0
LINE
8
Layer 1
10
10.569904
20
14.092849
11
11.066699
21
12.897439
0
LINE
8
Layer 1
10
11.066699
20
12.897439
11
11.853557
21
11.869497
0
LINE
8
Layer 1
10
11.853557
20
11.869497
11
12.896824
21
11.067314
0
LINE
8
Layer 1
10
12.896824
20
11.067314
11
14.113168
21
10.564910
0
LINE
8
Layer 1
10
14.113168
20
10.564910
11
15.396821
21
10.397442
0
LINE
8
Layer 1
10
15.396821
20
10.397442
11
16.680474
21
10.564910
0
LINE
8
Layer 1
10
16.680474
20
10.564910
11
17.896818
21
11.067314
0
LINE
8
Layer 1
10
17.896818
20
11.067314
11
18.940085
21
11.869497
0
LINE
8
Layer 1
10
18.940085
20
11.869497
11
19.726943
21
12.897439
0
LINE
8
Layer 1
10
19.726943
20
12.897439
11
20.223738
21
14.092849
0
LINE
8
Layer 1
10
20.223738
20
14.092849
11
20.396815
21
15.397436
0
LINE
8
Layer 1
10
20.396815
20
15.397436
11
20.396815
21
15.397436
0
LINE
8
Layer 1
10
26.411429
20
5.132870
11
26.310948
21
5.507870
0
LINE
8
Layer 1
10
26.310948
20
5.507870
11
26.036429
21
5.782389
0
LINE
8
Layer 1
10
26.036429
20
5.782389
11
25.661429
21
5.882870
0
LINE
8
Layer 1
10
25.661429
20
5.882870
11
25.286429
21
5.782389
0
LINE
8
Layer 1
10
25.286429
20
5.782389
11
25.011910
21
5.507870
0
LINE
8
Layer 1
10
25.011910
20
5.507870
11
24.911429
21
5.132870
0
LINE
8
Layer 1
10
24.911429
20
5.132870
11
25.011910
21
4.757870
0
LINE
8
Layer 1
10
25.011910
20
4.757870
11
25.286429
21
4.483351
0
LINE
8
Layer 1
10
25.286429
20
4.483351
11
25.661429
21
4.382870
0
LINE
8
Layer 1
10
25.661429
20
4.382870
11
26.036429
21
4.483351
0
LINE
8
Layer 1
10
26.036429
20
4.483351
11
26.310948
21
4.757870
0
LINE
8
Layer 1
10
26.310948
20
4.757870
11
26.411429
21
5.132870
0
LINE
8
Layer 1
10
26.411429
20
5.132870
11
26.411429
21
5.132870
0
LINE
8
Layer 1
10
30.661424
20
5.132870
11
30.559841
21
6.140543
0
LINE
8
Layer 1
10
30.559841
20
6.140543
11
30.268499
21
7.079093
0
LINE
8
Layer 1
10
30.268499
20
7.079093
11
29.807503
21
7.928414
0
LINE
8
Layer 1
10
29.807503
20
7.928414
11
29.196959
21
8.668399
0
LINE
8
Layer 1
10
29.196959
20
8.668399
11
28.456974
21
9.278943
0
LINE
8
Layer 1
10
28.456974
20
9.278943
11
27.607653
21
9.739939
0
LINE
8
Layer 1
10
27.607653
20
9.739939
11
26.669103
21
10.031282
0
LINE
8
Layer 1
10
26.669103
20
10.031282
11
25.661430
21
10.132864
0
LINE
8
Layer 1
10
25.661430
20
10.132864
11
24.653756
21
10.031282
0
LINE
8
Layer 1
10
24.653756
20
10.031282
11
23.715206
21
9.739939
0
LINE
8
Layer 1
10
23.715206
20
9.739939
11
22.865885
21
9.278943
0
LINE
8
Layer 1
10
22.865885
20
9.278943
11
22.125900
21
8.668399
0
LINE
8
Layer 1
10
22.125900
20
8.668399
11
21.515356
21
7.928414
0
LINE
8
Layer 1
10
21.515356
20
7.928414
11
21.054360
21
7.079093
0
LINE
8
Layer 1
10
21.054360
20
7.079093
11
20.763018
21
6.140543
0
LINE
8
Layer 1
10
20.763018
20
6.140543
11
20.661435
21
5.132870
0
LINE
8
Layer 1
10
20.661435
20
5.132870
11
20.763018
21
4.125197
0
LINE
8
Layer 1
10
20.763018
20
4.125197
11
21.054360
21
3.186646
0
LINE
8
Layer 1
10
21.054360
20
3.186646
11
21.515356
21
2.337326
0
LINE
8
Layer 1
10
21.515356
20
2.337326
11
22.125900
21
1.597340
0
LINE
8
Layer 1
10
22.125900
20
1.597340
11
22.865885
21
0.986796
0
LINE
8
Layer 1
10
22.865885
20
0.986796
11
23.715206
21
0.525800
0
LINE
8
Layer 1
10
23.715206
20
0.525800
11
24.653756
21
0.234458
0
LINE
8
Layer 1
10
24.653756
20
0.234458
11
25.661430
21
0.132876
0
LINE
8
Layer 1
10
25.661430
20
0.132876
11
26.669103
21
0.234458
0
LINE
8
Layer 1
10
26.669103
20
0.234458
11
27.607653
21
0.525800
0
LINE
8
Layer 1
10
27.607653
20
0.525800
11
28.456974
21
0.986796
0
LINE
8
Layer 1
10
28.456974
20
0.986796
11
29.196959
21
1.597340
0
LINE
8
Layer 1
10
29.196959
20
1.597340
11
29.807503
21
2.337326
0
LINE
8
Layer 1
10
29.807503
20
2.337326
11
30.268499
21
3.186646
0
LINE
8
Layer 1
10
30.268499
20
3.186646
11
30.559841
21
4.125197
0
LINE
8
Layer 1
10
30.559841
20
4.125197
11
30.661424
21
5.132870
0
LINE
8
Layer 1
10
30.661424
20
5.132870
11
30.661424
21
5.132870
0
LINE
8
Layer 1
10
36.676001
20
5.132870
11
36.456109
21
5.662792
0
LINE
8
Layer 1
10
36.456109
20
5.662792
11
35.926002
21
5.882239
0
LINE
8
Layer 1
10
35.926002
20
5.882239
11
35.395895
21
5.662792
0
LINE
8
Layer 1
10
35.395895
20
5.662792
11
35.176003
21
5.132870
0
LINE
8
Layer 1
10
35.176003
20
5.132870
11
35.395895
21
4.602948
0
LINE
8
Layer 1
10
35.395895
20
4.602948
11
35.926002
21
4.383501
0
LINE
8
Layer 1
10
35.926002
20
4.383501
11
36.456109
21
4.602948
0
LINE
8
Layer 1
10
36.456109
20
4.602948
11
36.676001
21
5.132870
0
LINE
8
Layer 1
10
36.676001
20
5.132870
11
36.676001
21
5.132870
0
LINE
8
Layer 1
10
40.925995
20
5.132870
11
40.752918
21
6.437457
0
LINE
8
Layer 1
10
40.752918
20
6.437457
11
40.256123
21
7.632867
0
LINE
8
Layer 1
10
40.256123
20
7.632867
11
39.469265
21
8.660809
0
LINE
8
Layer 1
10
39.469265
20
8.660809
11
38.425998
21
9.462992
0
LINE
8
Layer 1
10
38.425998
20
9.462992
11
37.209654
21
9.965396
0
LINE
8
Layer 1
10
37.209654
20
9.965396
11
35.926001
21
10.132864
0
LINE
8
Layer 1
10
35.926001
20
10.132864
11
34.642348
21
9.965396
0
LINE
8
Layer 1
10
34.642348
20
9.965396
11
33.426004
21
9.462992
0
LINE
8
Layer 1
10
33.426004
20
9.462992
11
32.382737
21
8.660809
0
LINE
8
Layer 1
10
32.382737
20
8.660809
11
31.595879
21
7.632867
0
LINE
8
Layer 1
10
31.595879
20
7.632867
11
31.099084
21
6.437457
0
LINE
8
Layer 1
10
31.099084
20
6.437457
11
30.926007
21
5.132870
0
LINE
8
Layer 1
10
30.926007
20
5.132870
11
31.099084
21
3.828283
0
LINE
8
Layer 1
10
31.099084
20
3.828283
11
31.595879
21
2.632873
0
LINE
8
Layer 1
10
31.595879
20
2.632873
11
32.382737
21
1.604930
0
LINE
8
Layer 1
10
32.382737
20
1.604930
11
33.426004
21
0.802748
0
LINE
8
Layer 1
10
33.426004
20
0.802748
11
34.642348
21
0.300344
0
LINE
8
Layer 1
10
34.642348
20
0.300344
11
35.926001
21
0.132875
0
LINE
8
Layer 1
10
35.926001
20
0.132875
11
37.209654
21
0.300344
0
LINE
8
Layer 1
10
37.209654
20
0.300344
11
38.425998
21
0.802748
0
LINE
8
Layer 1
10
38.425998
20
0.802748
11
39.469265
21
1.604930
0
LINE
8
Layer 1
10
39.469265
20
1.604930
11
40.256123
21
2.632873
0
LINE
8
Layer 1
10
40.256123
20
2.632873
11
40.752918
21
3.828283
0
LINE
8
Layer 1
10
40.752918
20
3.828283
11
40.925995
21
5.132870
0
LINE
8
Layer 1
10
40.925995
20
5.132870
11
40.925995
21
5.132870
0
LINE
8
Layer 1
10
26.411427
20
15.397444
11
26.191535
21
15.927366
0
LINE
8
Layer 1
10
26.191535
20
15.927366
11
25.661428
21
16.146813
0
LINE
8
Layer 1
10
25.661428
20
16.146813
11
25.131321
21
15.927366
0
LINE
8
Layer 1
10
25.131321
20
15.927366
11
24.911429
21
15.397444
0
LINE
8
Layer 1
10
24.911429
20
15.397444
11
25.131321
21
14.867522
0
LINE
8
Layer 1
10
25.131321
20
14.867522
11
25.661428
21
14.648075
0
LINE
8
Layer 1
10
25.661428
20
14.648075
11
26.191535
21
14.867522
0
LINE
8
Layer 1
10
26.191535
20
14.867522
11
26.411427
21
15.397444
0
LINE
8
Layer 1
10
26.411427
20
15.397444
11
26.411427
21
15.397444
0
LINE
8
Layer 1
10
30.661424
20
15.397444
11
30.559841
21
16.405117
0
LINE
8
Layer 1
10
30.559841
20
16.405117
11
30.268499
21
17.343667
0
LINE
8
Layer 1
10
30.268499
20
17.343667
11
29.807503
21
18.192988
0
LINE
8
Layer 1
10
29.807503
20
18.192988
11
29.196959
21
18.932974
0
LINE
8
Layer 1
10
29.196959
20
18.932974
11
28.456974
21
19.543517
0
LINE
8
Layer 1
10
28.456974
20
19.543517
11
27.607653
21
20.004514
0
LINE
8
Layer 1
10
27.607653
20
20.004514
11
26.669103
21
20.295856
0
LINE
8
Layer 1
10
26.669103
20
20.295856
11
25.661430
21
20.397438
0
LINE
8
Layer 1
10
25.661430
20
20.397438
11
24.653756
21
20.295856
0
LINE
8
Layer 1
10
24.653756
20
20.295856
11
23.715206
21
20.004514
0
LINE
8
Layer 1
10
23.715206
20
20.004514
11
22.865885
21
19.543517
0
LINE
8
Layer 1
10
22.865885
20
19.543517
11
22.125900
21
18.932974
0
LINE
8
Layer 1
10
22.125900
20
18.932974
11
21.515356
21
18.192988
0
LINE
8
Layer 1
10
21.515356
20
18.192988
11
21.054360
21
17.343667
0
LINE
8
Layer 1
10
21.054360
20
17.343667
11
20.763018
21
16.405117
0
LINE
8
Layer 1
10
20.763018
20
16.405117
11
20.661435
21
15.397444
0
LINE
8
Layer 1
10
20.661435
20
15.397444
11
20.763018
21
14.389771
0
LINE
8
Layer 1
10
20.763018
20
14.389771
11
21.054360
21
13.451221
0
LINE
8
Layer 1
10
21.054360
20
13.451221
11
21.515356
21
12.601900
0
LINE
8
Layer 1
10
21.515356
20
12.601900
11
22.125900
21
11.861914
0
LINE
8
Layer 1
10
22.125900
20
11.861914
11
22.865885
21
11.251371
0
LINE
8
Layer 1
10
22.865885
20
11.251371
11
23.715206
21
10.790374
0
LINE
8
Layer 1
10
23.715206
20
10.790374
11
24.653756
21
10.499032
0
LINE
8
Layer 1
10
24.653756
20
10.499032
11
25.661430
21
10.397450
0
LINE
8
Layer 1
10
25.661430
20
10.397450
11
26.669103
21
10.499032
0
LINE
8
Layer 1
10
26.669103
20
10.499032
11
27.607653
21
10.790374
0
LINE
8
Layer 1
10
27.607653
20
10.790374
11
28.456974
21
11.251371
0
LINE
8
Layer 1
10
28.456974
20
11.251371
11
29.196959
21
11.861914
0
LINE
8
Layer 1
10
29.196959
20
11.861914
11
29.807503
21
12.601900
0
LINE
8
Layer 1
10
29.807503
20
12.601900
11
30.268499
21
13.451221
0
LINE
8
Layer 1
10
30.268499
20
13.451221
11
30.559841
21
14.389771
0
LINE
8
Layer 1
10
30.559841
20
14.389771
11
30.661424
21
15.397444
0
LINE
8
Layer 1
10
30.661424
20
15.397444
11
30.661424
21
15.397444
0
LINE
8
Layer 1
10
36.676001
20
15.397436
11
36.456109
21
15.927358
0
LINE
8
Layer 1
10
36.456109
20
15.927358
11
35.926002
21
16.146805
0
LINE
8
Layer 1
10
35.926002
20
16.146805
11
35.395895
21
15.927358
0
LINE
8
Layer 1
10
35.395895
20
15.927358
11
35.176003
21
15.397436
0
LINE
8
Layer 1
10
35.176003
20
15.397436
11
35.395895
21
14.867514
0
LINE
8
Layer 1
10
35.395895
20
14.867514
11
35.926002
21
14.648067
0
LINE
8
Layer 1
10
35.926002
20
14.648067
11
36.456109
21
14.867514
0
LINE
8
Layer 1
10
36.456109
20
14.867514
11
36.676001
21
15.397436
0
LINE
8
Layer 1
10
36.676001
20
15.397436
11
36.676001
21
15.397436
0
LINE
8
Layer 1
10
40.925995
20
15.397436
11
40.752918
21
16.702023
0
LINE
8
Layer 1
10
40.752918
20
16.702023
11
40.256123
21
17.897433
0
LINE
8
Layer 1
10
40.256123
20
17.897433
11
39.469265
21
18.925375
0
LINE
8
Layer 1
10
39.469265
20
18.925375
11
38.425998
21
19.727558
0
LINE
8
Layer 1
10
38.425998
20
19.727558
11
37.209654
21
20.229962
0
LINE
8
Layer 1
10
37.209654
20
20.229962
11
35.926001
21
20.397430
0
LINE
8
Layer 1
10
35.926001
20
20.397430
11
34.642348
21
20.229962
0
LINE
8
Layer 1
10
34.642348
20
20.229962
11
33.426004
21
19.727558
0
LINE
8
Layer 1
10
33.426004
20
19.727558
11
32.382737
21
18.925375
0
LINE
8
Layer 1
10
32.382737
20
18.925375
11
31.595879
21
17.897433
0
LINE
8
Layer 1
10
31.595879
20
17.897433
11
31.099084
21
16.702023
0
LINE
8
Layer 1
10
31.099084
20
16.702023
11
30.926007
21
15.397436
0
LINE
8
Layer 1
10
30.926007
20
15.397436
11
31.099084
21
14.092849
0
LINE
8
Layer 1
10
31.099084
20
14.092849
11
31.595879
21
12.897439
0
LINE
8
Layer 1
10
31.595879
20
12.897439
11
32.382737
21
11.869497
0
LINE
8
Layer 1
10
32.382737
20
11.869497
11
33.426004
21
11.067314
0
LINE
8
Layer 1
10
33.426004
20
11.067314
11
34.642348
21
10.564910
0
LINE
8
Layer 1
10
34.642348
20
10.564910
11
35.926001
21
10.397442
0
LINE
8
Layer 1
10
35.926001
20
10.397442
11
37.209654
21
10.564910
0
LINE
8
Layer 1
10
37.209654
20
10.564910
11
38.425998
21
11.067314
0
LINE
8
Layer 1
10
38.425998
20
11.067314
11
39.469265
21
11.869497
0
LINE
8
Layer 1
10
39.469265
20
11.869497
11
40.256123
21
12.897439
0
LINE
8
Layer 1
10
40.256123
20
12.897439
11
40.752918
21
14.092849
0
LINE
8
Layer 1
10
40.752918
20
14.092849
11
40.925995
21
15.397436
0
LINE
8
Layer 1
10
40.925995
20
15.397436
11
40.925995
21
15.397436
 0 
ENDSEC
 0 
EOF