<?xml version="1.0" encoding="UTF-8" standalone="no"?>
<svg
   viewBox="0 0 155.18112 77.590555"
   width="155.18112"
   height="77.590553"
   version="1.1"
   id="svg6"
   sodipodi:docname="Espacador.svg"
   inkscape:version="1.3 (0e150ed6c4, 2023-07-21)"
   xmlns:inkscape="http://www.inkscape.org/namespaces/inkscape"
   xmlns:sodipodi="http://sodipodi.sourceforge.net/DTD/sodipodi-0.dtd"
   xmlns="http://www.w3.org/2000/svg"
   xmlns:svg="http://www.w3.org/2000/svg">
  <sodipodi:namedview
     id="namedview6"
     pagecolor="#ffffff"
     bordercolor="#000000"
     borderopacity="0.25"
     inkscape:showpageshadow="2"
     inkscape:pageopacity="0.0"
     inkscape:pagecheckerboard="0"
     inkscape:deskcolor="#d1d1d1"
     inkscape:zoom="2.897054"
     inkscape:cx="50.741202"
     inkscape:cy="19.847749"
     inkscape:window-width="1920"
     inkscape:window-height="1009"
     inkscape:window-x="-8"
     inkscape:window-y="892"
     inkscape:window-maximized="1"
     inkscape:current-layer="g6" />
  <desc
     id="desc1">Espacador.dxf - scale = 1.000000, origin = (0.000000, 0.000000), method = manual</desc>
  <defs
     id="defs4">
    <marker
       id="DistanceX"
       orient="auto"
       refX="0"
       refY="0"
       style="overflow:visible">
      <path
         d="M 3,-3 -3,3 M 0,-5 V 5"
         style="stroke:#000000;stroke-width:0.5"
         id="path1" />
    </marker>
    <pattern
       id="Hatch"
       patternUnits="userSpaceOnUse"
       width="8"
       height="8"
       x="0"
       y="0">
      <path
         d="M8 4 l-4,4"
         stroke="#000000"
         stroke-width="0.25"
         linecap="square"
         id="path2" />
      <path
         d="M6 2 l-4,4"
         stroke="#000000"
         stroke-width="0.25"
         linecap="square"
         id="path3" />
      <path
         d="M4 0 l-4,4"
         stroke="#000000"
         stroke-width="0.25"
         linecap="square"
         id="path4" />
    </pattern>
    <symbol
       id="*MODEL_SPACE" />
    <symbol
       id="*PAPER_SPACE" />
  </defs>
  <g
     inkscape:groupmode="layer"
     inkscape:label="0"
     id="g6"
     transform="translate(-88.313172,-972.93958)">
    <g
       id="g12">
      <path
         d="m 110.54546,1031.1325 a 2.83465,2.83465 0 0 0 -5.6693,0 2.83465,2.83465 0 0 0 5.6693,0 z"
         style="fill:none;stroke:#000000"
         id="path5" />
      <path
         d="m 126.60845,1031.1325 a 18.897639,18.897639 0 0 0 -37.795278,0 18.897639,18.897639 0 0 0 37.795278,0 z"
         style="fill:none;stroke:#000000"
         id="path6" />
      <path
         d="m 149.34074,1031.1325 a 2.834646,2.834646 0 0 0 -5.66929,0 2.834646,2.834646 0 0 0 5.66929,0 z"
         style="fill:none;stroke:#000000"
         id="path7" />
      <path
         d="m 165.40373,1031.1325 a 18.89764,18.89764 0 0 0 -37.79528,0 18.89764,18.89764 0 0 0 37.79528,0 z"
         style="fill:none;stroke:#000000"
         id="path8" />
      <path
         d="m 110.54545,992.33721 a 2.834646,2.834646 0 0 0 -5.66929,0 2.834646,2.834646 0 0 0 5.66929,0 z"
         style="fill:none;stroke:#000000"
         id="path9" />
      <path
         d="m 126.60845,992.33721 a 18.897639,18.897639 0 0 0 -37.795278,0 18.897639,18.897639 0 0 0 37.795278,0 z"
         style="fill:none;stroke:#000000"
         id="path10" />
      <path
         d="m 149.34074,992.33724 a 2.834646,2.834646 0 0 0 -5.66929,0 2.834646,2.834646 0 0 0 5.66929,0 z"
         style="fill:none;stroke:#000000"
         id="path11" />
      <path
         d="m 165.40373,992.33724 a 18.89764,18.89764 0 0 0 -37.79528,0 18.89764,18.89764 0 0 0 37.79528,0 z"
         style="fill:none;stroke:#000000"
         id="path12" />
    </g>
    <g
       id="g20"
       transform="translate(77.590568)">
      <path
         d="m 110.54546,1031.1325 a 2.83465,2.83465 0 0 0 -5.6693,0 2.83465,2.83465 0 0 0 5.6693,0 z"
         style="fill:none;stroke:#000000"
         id="path13" />
      <path
         d="m 126.60845,1031.1325 a 18.897639,18.897639 0 0 0 -37.795278,0 18.897639,18.897639 0 0 0 37.795278,0 z"
         style="fill:none;stroke:#000000"
         id="path14" />
      <path
         d="m 149.34074,1031.1325 a 2.834646,2.834646 0 0 0 -5.66929,0 2.834646,2.834646 0 0 0 5.66929,0 z"
         style="fill:none;stroke:#000000"
         id="path15" />
      <path
         d="m 165.40373,1031.1325 a 18.89764,18.89764 0 0 0 -37.79528,0 18.89764,18.89764 0 0 0 37.79528,0 z"
         style="fill:none;stroke:#000000"
         id="path16" />
      <path
         d="m 110.54545,992.33721 a 2.834646,2.834646 0 0 0 -5.66929,0 2.834646,2.834646 0 0 0 5.66929,0 z"
         style="fill:none;stroke:#000000"
         id="path17" />
      <path
         d="m 126.60845,992.33721 a 18.897639,18.897639 0 0 0 -37.795278,0 18.897639,18.897639 0 0 0 37.795278,0 z"
         style="fill:none;stroke:#000000"
         id="path18" />
      <path
         d="m 149.34074,992.33724 a 2.834646,2.834646 0 0 0 -5.66929,0 2.834646,2.834646 0 0 0 5.66929,0 z"
         style="fill:none;stroke:#000000"
         id="path19" />
      <path
         d="m 165.40373,992.33724 a 18.89764,18.89764 0 0 0 -37.79528,0 18.89764,18.89764 0 0 0 37.79528,0 z"
         style="fill:none;stroke:#000000"
         id="path20" />
    </g>
  </g>
</svg>
