999
"DXF R12 Output" (www.mydxf.blogspot.com)
 0 
SECTION
 2 
HEADER
 9 
$ACADVER
 1 
AC1009
 9 
$EXTMIN
 10 
 0 
 20 
 0 
 9 
$EXTMAX
 10 
 8.5 
 20 
 11 
 0 
ENDSEC
 0 
SECTION
 2 
ENTITIES
0
LINE
8
Layer 1
10
0.793749
20
47.372849
11
-0.793749
21
45.785351
0
LINE
8
Layer 1
10
0.000000
20
47.902015
11
0.000000
21
45.256185
0
LINE
8
Layer 1
10
2.116664
20
45.520768
11
1.058332
21
44.462436
0
LINE
8
Layer 1
10
1.587498
20
46.049934
11
0.529166
21
44.991602
0
LINE
8
Layer 1
10
1.058332
20
46.579100
11
0.000000
21
45.520768
0
LINE
8
0
10
81.432249
20
45.697204
11
81.331768
21
46.072204
0
LINE
8
0
10
81.331768
20
46.072204
11
81.057249
21
46.346723
0
LINE
8
0
10
81.057249
20
46.346723
11
80.682249
21
46.447204
0
LINE
8
0
10
80.682249
20
46.447204
11
80.307249
21
46.346723
0
LINE
8
0
10
80.307249
20
46.346723
11
80.032730
21
46.072204
0
LINE
8
0
10
80.032730
20
46.072204
11
79.932249
21
45.697204
0
LINE
8
0
10
79.932249
20
45.697204
11
80.032730
21
45.322204
0
LINE
8
0
10
80.032730
20
45.322204
11
80.307249
21
45.047685
0
LINE
8
0
10
80.307249
20
45.047685
11
80.682249
21
44.947204
0
LINE
8
0
10
80.682249
20
44.947204
11
81.057249
21
45.047685
0
LINE
8
0
10
81.057249
20
45.047685
11
81.331768
21
45.322204
0
LINE
8
0
10
81.331768
20
45.322204
11
81.432249
21
45.697204
0
LINE
8
0
10
81.432249
20
45.697204
11
81.432249
21
45.697204
0
LINE
8
0
10
55.782358
20
23.289537
11
55.704725
21
24.823048
0
LINE
8
0
10
55.704725
20
24.823048
11
55.477264
21
26.312248
0
LINE
8
0
10
55.477264
20
26.312248
11
54.603012
21
29.127567
0
LINE
8
0
10
54.603012
20
29.127567
11
53.219908
21
31.675197
0
LINE
8
0
10
53.219908
20
31.675197
11
51.388261
21
33.894838
0
LINE
8
0
10
51.388261
20
33.894838
11
49.168377
21
35.726190
0
LINE
8
0
10
49.168377
20
35.726190
11
46.620564
21
37.108955
0
LINE
8
0
10
46.620564
20
37.108955
11
43.805128
21
37.982834
0
LINE
8
0
10
43.805128
20
37.982834
11
42.315898
21
38.210097
0
LINE
8
0
10
42.315898
20
38.210097
11
40.782377
21
38.287526
0
LINE
8
0
10
40.782377
20
38.287526
11
39.248856
21
38.210097
0
LINE
8
0
10
39.248856
20
38.210097
11
37.759626
21
37.982834
0
LINE
8
0
10
37.759626
20
37.982834
11
34.944190
21
37.108955
0
LINE
8
0
10
34.944190
20
37.108955
11
32.396377
21
35.726190
0
LINE
8
0
10
32.396377
20
35.726190
11
30.176493
21
33.894838
0
LINE
8
0
10
30.176493
20
33.894838
11
28.344846
21
31.675197
0
LINE
8
0
10
28.344846
20
31.675197
11
26.961742
21
29.127567
0
LINE
8
0
10
26.961742
20
29.127567
11
26.087490
21
26.312248
0
LINE
8
0
10
26.087490
20
26.312248
11
25.860029
21
24.823048
0
LINE
8
0
10
25.860029
20
24.823048
11
25.782396
21
23.289537
0
LINE
8
0
10
25.782396
20
23.289537
11
25.860029
21
21.756027
0
LINE
8
0
10
25.860029
20
21.756027
11
26.087490
21
20.266827
0
LINE
8
0
10
26.087490
20
20.266827
11
26.961742
21
17.451507
0
LINE
8
0
10
26.961742
20
17.451507
11
28.344846
21
14.903877
0
LINE
8
0
10
28.344846
20
14.903877
11
30.176493
21
12.684237
0
LINE
8
0
10
30.176493
20
12.684237
11
32.396377
21
10.852884
0
LINE
8
0
10
32.396377
20
10.852884
11
34.944190
21
9.470119
0
LINE
8
0
10
34.944190
20
9.470119
11
37.759626
21
8.596241
0
LINE
8
0
10
37.759626
20
8.596241
11
39.248856
21
8.368978
0
LINE
8
0
10
39.248856
20
8.368978
11
40.782377
21
8.291548
0
LINE
8
0
10
40.782377
20
8.291548
11
42.315898
21
8.368978
0
LINE
8
0
10
42.315898
20
8.368978
11
43.805128
21
8.596241
0
LINE
8
0
10
43.805128
20
8.596241
11
46.620564
21
9.470119
0
LINE
8
0
10
46.620564
20
9.470119
11
49.168377
21
10.852884
0
LINE
8
0
10
49.168377
20
10.852884
11
51.388261
21
12.684237
0
LINE
8
0
10
51.388261
20
12.684237
11
53.219908
21
14.903877
0
LINE
8
0
10
53.219908
20
14.903877
11
54.603012
21
17.451507
0
LINE
8
0
10
54.603012
20
17.451507
11
55.477264
21
20.266827
0
LINE
8
0
10
55.477264
20
20.266827
11
55.704725
21
21.756027
0
LINE
8
0
10
55.704725
20
21.756027
11
55.782358
21
23.289537
0
LINE
8
0
10
55.782358
20
23.289537
11
55.782358
21
23.289537
0
LINE
8
0
10
1.632503
20
0.881871
11
1.412611
21
1.411793
0
LINE
8
0
10
1.412611
20
1.411793
11
0.882504
21
1.631240
0
LINE
8
0
10
0.882504
20
1.631240
11
0.352398
21
1.411793
0
LINE
8
0
10
0.352398
20
1.411793
11
0.132505
21
0.881871
0
LINE
8
0
10
0.132505
20
0.881871
11
0.352398
21
0.351948
0
LINE
8
0
10
0.352398
20
0.351948
11
0.882504
21
0.132502
0
LINE
8
0
10
0.882504
20
0.132502
11
1.412611
21
0.351948
0
LINE
8
0
10
1.412611
20
0.351948
11
1.632503
21
0.881871
0
LINE
8
0
10
1.632503
20
0.881871
11
1.632503
21
0.881871
0
LINE
8
0
10
1.632503
20
45.697204
11
1.412611
21
46.227126
0
LINE
8
0
10
1.412611
20
46.227126
11
0.882504
21
46.446573
0
LINE
8
0
10
0.882504
20
46.446573
11
0.352398
21
46.227126
0
LINE
8
0
10
0.352398
20
46.227126
11
0.132505
21
45.697204
0
LINE
8
0
10
0.132505
20
45.697204
11
0.352398
21
45.167282
0
LINE
8
0
10
0.352398
20
45.167282
11
0.882504
21
44.947835
0
LINE
8
0
10
0.882504
20
44.947835
11
1.412611
21
45.167282
0
LINE
8
0
10
1.412611
20
45.167282
11
1.632503
21
45.697204
0
LINE
8
0
10
1.632503
20
45.697204
11
1.632503
21
45.697204
0
LINE
8
0
10
81.432247
20
0.881871
11
81.212355
21
1.411793
0
LINE
8
0
10
81.212355
20
1.411793
11
80.682248
21
1.631240
0
LINE
8
0
10
80.682248
20
1.631240
11
80.152141
21
1.411793
0
LINE
8
0
10
80.152141
20
1.411793
11
79.932249
21
0.881871
0
LINE
8
0
10
79.932249
20
0.881871
11
80.152141
21
0.351948
0
LINE
8
0
10
80.152141
20
0.351948
11
80.682248
21
0.132502
0
LINE
8
0
10
80.682248
20
0.132502
11
81.212355
21
0.351948
0
LINE
8
0
10
81.212355
20
0.351948
11
81.432247
21
0.881871
0
LINE
8
0
10
81.432247
20
0.881871
11
81.432247
21
0.881871
 0 
ENDSEC
 0 
EOF