<?xml version="1.0" encoding="UTF-8" standalone="no"?>
<svg
   viewBox="0 0 308.27499 176.04688"
   width="308.27499"
   height="176.04688"
   version="1.1"
   id="svg8"
   sodipodi:docname="Top.svg"
   inkscape:version="1.3 (0e150ed6c4, 2023-07-21)"
   xmlns:inkscape="http://www.inkscape.org/namespaces/inkscape"
   xmlns:sodipodi="http://sodipodi.sourceforge.net/DTD/sodipodi-0.dtd"
   xmlns="http://www.w3.org/2000/svg"
   xmlns:svg="http://www.w3.org/2000/svg">
  <sodipodi:namedview
     id="namedview8"
     pagecolor="#ffffff"
     bordercolor="#000000"
     borderopacity="0.25"
     inkscape:showpageshadow="2"
     inkscape:pageopacity="0.0"
     inkscape:pagecheckerboard="0"
     inkscape:deskcolor="#d1d1d1"
     inkscape:zoom="1.448527"
     inkscape:cx="141.86826"
     inkscape:cy="34.172646"
     inkscape:window-width="1920"
     inkscape:window-height="1009"
     inkscape:window-x="-8"
     inkscape:window-y="892"
     inkscape:window-maximized="1"
     inkscape:current-layer="g8" />
  <desc
     id="desc1">Top.dxf - scale = 1.000000, origin = (0.000000, 0.000000), method = manual</desc>
  <defs
     id="defs4">
    <marker
       id="DistanceX"
       orient="auto"
       refX="0"
       refY="0"
       style="overflow:visible">
      <path
         d="M 3,-3 -3,3 M 0,-5 V 5"
         style="stroke:#000000;stroke-width:0.5"
         id="path1" />
    </marker>
    <pattern
       id="Hatch"
       patternUnits="userSpaceOnUse"
       width="8"
       height="8"
       x="0"
       y="0">
      <path
         d="M8 4 l-4,4"
         stroke="#000000"
         stroke-width="0.25"
         linecap="square"
         id="path2" />
      <path
         d="M6 2 l-4,4"
         stroke="#000000"
         stroke-width="0.25"
         linecap="square"
         id="path3" />
      <path
         d="M4 0 l-4,4"
         stroke="#000000"
         stroke-width="0.25"
         linecap="square"
         id="path4" />
    </pattern>
    <symbol
       id="*MODEL_SPACE" />
    <symbol
       id="*PAPER_SPACE" />
  </defs>
  <g
     inkscape:groupmode="layer"
     inkscape:label="0"
     id="g8"
     transform="translate(197.22955,-1041.193)">
    <path
       d="m 110.54546,1044.5259 a 2.83465,2.83465 0 0 0 -5.6693,0 2.83465,2.83465 0 0 0 5.6693,0 z"
       style="fill:none;stroke:#000000"
       id="path5" />
    <path
       d="m 13.600867,1129.2164 a 56.692914,56.692914 0 0 0 -113.385827,0 56.692914,56.692914 0 0 0 113.385827,0 z"
       style="fill:none;stroke:#000000"
       id="path6" />
    <path
       d="m -191.06026,1213.9069 a 2.834646,2.834646 0 0 0 -5.66929,0 2.834646,2.834646 0 0 0 5.66929,0 z"
       style="fill:none;stroke:#000000"
       id="path7" />
    <path
       d="m -191.06026,1044.5259 a 2.834646,2.834646 0 0 0 -5.66929,0 2.834646,2.834646 0 0 0 5.66929,0 z"
       style="fill:none;stroke:#000000"
       id="path8" />
    <path
       d="m 110.54545,1213.9069 a 2.834646,2.834646 0 0 0 -5.66929,0 2.834646,2.834646 0 0 0 5.66929,0 z"
       style="fill:none;stroke:#000000"
       id="path9" />
  </g>
</svg>
