<?xml version="1.0" encoding="UTF-8" standalone="no"?>
<svg
   viewBox="0 0 114.38581 93.0791"
   width="30.26458mm"
   height="24.627178mm"
   version="1.1"
   id="svg25"
   sodipodi:docname="Base.svg"
   xml:space="preserve"
   inkscape:version="1.3 (0e150ed6c4, 2023-07-21)"
   xmlns:inkscape="http://www.inkscape.org/namespaces/inkscape"
   xmlns:sodipodi="http://sodipodi.sourceforge.net/DTD/sodipodi-0.dtd"
   xmlns="http://www.w3.org/2000/svg"
   xmlns:svg="http://www.w3.org/2000/svg"><sodipodi:namedview
     id="namedview25"
     pagecolor="#ffffff"
     bordercolor="#000000"
     borderopacity="0.25"
     inkscape:showpageshadow="2"
     inkscape:pageopacity="0.0"
     inkscape:pagecheckerboard="0"
     inkscape:deskcolor="#d1d1d1"
     inkscape:zoom="2.0485265"
     inkscape:cx="5.3697133"
     inkscape:cy="1.2203894"
     inkscape:window-width="1920"
     inkscape:window-height="1009"
     inkscape:window-x="-8"
     inkscape:window-y="892"
     inkscape:window-maximized="1"
     inkscape:current-layer="g25"
     inkscape:document-units="mm" /><desc
     id="desc1">LatX2.dxf - scale = 1.000000, origin = (0.000000, 0.000000), method = manual</desc><defs
     id="defs4"><marker
       id="DistanceX"
       orient="auto"
       refX="0"
       refY="0"
       style="overflow:visible"><path
         d="M 3,-3 -3,3 M 0,-5 V 5"
         style="stroke:#000000;stroke-width:0.5"
         id="path1" /></marker><pattern
       id="Hatch"
       patternUnits="userSpaceOnUse"
       width="8"
       height="8"
       x="0"
       y="0"><path
         d="M8 4 l-4,4"
         stroke="#000000"
         stroke-width="0.25"
         linecap="square"
         id="path2" /><path
         d="M6 2 l-4,4"
         stroke="#000000"
         stroke-width="0.25"
         linecap="square"
         id="path3" /><path
         d="M4 0 l-4,4"
         stroke="#000000"
         stroke-width="0.25"
         linecap="square"
         id="path4" /></pattern><symbol
       id="*MODEL_SPACE" /><symbol
       id="*PAPER_SPACE" /><marker
       id="DistanceX-4"
       orient="auto"
       refX="0"
       refY="0"
       style="overflow:visible"><path
         d="M 3,-3 -3,3 M 0,-5 V 5"
         style="stroke:#000000;stroke-width:0.5"
         id="path1-8" /></marker><pattern
       id="Hatch-7"
       patternUnits="userSpaceOnUse"
       width="8"
       height="8"
       x="0"
       y="0"><path
         d="M8 4 l-4,4"
         stroke="#000000"
         stroke-width="0.25"
         linecap="square"
         id="path2-3" /><path
         d="M6 2 l-4,4"
         stroke="#000000"
         stroke-width="0.25"
         linecap="square"
         id="path3-7" /><path
         d="M4 0 l-4,4"
         stroke="#000000"
         stroke-width="0.25"
         linecap="square"
         id="path4-1" /></pattern><symbol
       id="*MODEL_SPACE-9" /><symbol
       id="*PAPER_SPACE-2" /></defs><g
     inkscape:groupmode="layer"
     inkscape:label="0"
     id="g25"
     transform="translate(-103.41034,-764.29245)"><g
       id="g26"
       transform="translate(0.17758932)"><path
         style="fill:none;stroke:#000000"
         d="m 205.46547,776.13245 h -7.2275 v -11.34 h -9.9213 v 11.34 h -10.29918 v -11.34 h -9.92122 v 11.34 h -10.2993 v -11.34 h -9.9212 l 11.3386,44.6 v -1.89 h 9.54327 v 11.34 h 9.16536 v -11.34 h 9.92125 v 11.34 h 6.76312 z"
         id="path11"
         sodipodi:nodetypes="cccccccccccccccccccccc" /><path
         style="fill:none;stroke:#000000"
         d="m 103.87577,807.50245 h 7.2275 v 11.34 h 9.9213 v -11.34 h 10.29918 v 11.34 h 9.92122 v -11.34 h 10.2993 v 11.34 h 9.9212 l -11.3386,-44.6 v 1.89 h -9.54327 v -11.34 h -9.16536 v 11.34 h -9.92125 v -11.34 h -6.76312 z"
         id="path25"
         sodipodi:nodetypes="cccccccccccccccccccccc" /></g><path
       d="m 103.91034,828.57234 v 9.30709 h 11.3386 v 9.68504 h -11.3386 v 9.30708 h 113.38581 v -9.30708 h -11.33861 v -9.68504 h 11.33861 v -9.30709 h -11.33861 v -9.49606 h -90.7086 v 9.49606 z"
       style="fill:none;stroke:#000000"
       id="path5" /></g></svg>
