999
"DXF R12 Output" (www.mydxf.blogspot.com)
 0 
SECTION
 2 
HEADER
 9 
$ACADVER
 1 
AC1009
 9 
$EXTMIN
 10 
 0 
 20 
 0 
 9 
$EXTMAX
 10 
 8.5 
 20 
 11 
 0 
ENDSEC
 0 
SECTION
 2 
ENTITIES
0
LINE
8
Layer 1
10
0.793749
20
31.058349
11
-0.793749
21
29.470851
0
LINE
8
Layer 1
10
0.000000
20
31.587515
11
0.000000
21
28.941685
0
LINE
8
Layer 1
10
2.116664
20
29.206268
11
1.058332
21
28.147936
0
LINE
8
Layer 1
10
1.587498
20
29.735434
11
0.529166
21
28.677102
0
LINE
8
Layer 1
10
1.058332
20
30.264600
11
0.000000
21
29.206268
0
LINE
8
0
10
2.757297
20
0.133393
11
2.757297
21
3.133393
0
LINE
8
0
10
2.757297
20
3.133393
11
0.132300
21
3.133393
0
LINE
8
0
10
0.132300
20
3.133393
11
0.132300
21
0.133393
0
LINE
8
0
10
0.132300
20
0.133393
11
2.757297
21
0.133393
0
LINE
8
0
10
5.482293
20
3.133393
11
5.482293
21
0.133393
0
LINE
8
0
10
5.482293
20
0.133393
11
8.107290
21
0.133393
0
LINE
8
0
10
8.107290
20
0.133393
11
8.107290
21
3.133393
0
LINE
8
0
10
8.107290
20
3.133393
11
5.482293
21
3.133393
0
LINE
8
0
10
13.457283
20
0.133393
11
13.457283
21
3.133393
0
LINE
8
0
10
13.457283
20
3.133393
11
10.832286
21
3.133393
0
LINE
8
0
10
10.832286
20
3.133393
11
10.832286
21
0.133393
0
LINE
8
0
10
10.832286
20
0.133393
11
13.457283
21
0.133393
0
LINE
8
0
10
2.757297
20
27.133347
11
2.757297
21
30.133348
0
LINE
8
0
10
2.757297
20
30.133348
11
0.132300
21
30.133348
0
LINE
8
0
10
0.132300
20
30.133348
11
0.132300
21
27.133347
0
LINE
8
0
10
0.132300
20
27.133347
11
2.757297
21
27.133347
0
LINE
8
0
10
5.482293
20
30.133348
11
5.482293
21
27.133347
0
LINE
8
0
10
5.482293
20
27.133347
11
8.107290
21
27.133347
0
LINE
8
0
10
8.107290
20
27.133347
11
8.107290
21
30.133348
0
LINE
8
0
10
8.107290
20
30.133348
11
5.482293
21
30.133348
0
LINE
8
0
10
13.457283
20
27.133347
11
13.457283
21
30.133348
0
LINE
8
0
10
13.457283
20
30.133348
11
10.832286
21
30.133348
0
LINE
8
0
10
10.832286
20
30.133348
11
10.832286
21
27.133347
0
LINE
8
0
10
10.832286
20
27.133347
11
13.457283
21
27.133347
0
LINE
8
0
10
14.132282
20
15.133370
11
13.924590
21
16.698874
0
LINE
8
0
10
13.924590
20
16.698874
11
13.328436
21
18.133366
0
LINE
8
0
10
13.328436
20
18.133366
11
12.384206
21
19.366897
0
LINE
8
0
10
12.384206
20
19.366897
11
11.132286
21
20.329516
0
LINE
8
0
10
11.132286
20
20.329516
11
9.672674
21
20.932401
0
LINE
8
0
10
9.672674
20
20.932401
11
8.132290
21
21.133363
0
LINE
8
0
10
8.132290
20
21.133363
11
6.591906
21
20.932401
0
LINE
8
0
10
6.591906
20
20.932401
11
5.132294
21
20.329516
0
LINE
8
0
10
5.132294
20
20.329516
11
3.880374
21
19.366897
0
LINE
8
0
10
3.880374
20
19.366897
11
2.936144
21
18.133366
0
LINE
8
0
10
2.936144
20
18.133366
11
2.339990
21
16.698874
0
LINE
8
0
10
2.339990
20
16.698874
11
2.132298
21
15.133370
0
LINE
8
0
10
2.132298
20
15.133370
11
2.339990
21
13.567866
0
LINE
8
0
10
2.339990
20
13.567866
11
2.936144
21
12.133374
0
LINE
8
0
10
2.936144
20
12.133374
11
3.880374
21
10.899843
0
LINE
8
0
10
3.880374
20
10.899843
11
5.132294
21
9.937224
0
LINE
8
0
10
5.132294
20
9.937224
11
6.591906
21
9.334340
0
LINE
8
0
10
6.591906
20
9.334340
11
8.132290
21
9.133378
0
LINE
8
0
10
8.132290
20
9.133378
11
9.672674
21
9.334340
0
LINE
8
0
10
9.672674
20
9.334340
11
11.132286
21
9.937224
0
LINE
8
0
10
11.132286
20
9.937224
11
12.384206
21
10.899843
0
LINE
8
0
10
12.384206
20
10.899843
11
13.328436
21
12.133374
0
LINE
8
0
10
13.328436
20
12.133374
11
13.924590
21
13.567866
0
LINE
8
0
10
13.924590
20
13.567866
11
14.132282
21
15.133370
0
LINE
8
0
10
14.132282
20
15.133370
11
14.132282
21
15.133370
 0 
ENDSEC
 0 
EOF